<svg xmlns="http://www.w3.org/2000/svg" viewBox="0 0 64 64">
  <defs>
    <linearGradient id="knot-gradient" x1="8" y1="8" x2="56" y2="56">
      <stop offset="0" stop-color="#00d9ff"/>
      <stop offset=".58" stop-color="#22d3ee"/>
      <stop offset="1" stop-color="#a78bfa"/>
    </linearGradient>
  </defs>
  <rect width="64" height="64" rx="13" fill="#0a0e1a"/>
  <path
    d="M32 23.9 35.52 24.12 38.95 24.75 42.2 25.79 45.18 27.2 47.83 28.93 50.08 30.91 51.87 33.09 53.16 35.39 53.93 37.73 54.16 40.02 53.86 42.19 53.04 44.15 51.75 45.84 50.02 47.18 47.92 48.13 45.52 48.63 42.88 48.66 40.1 48.2 37.26 47.25 34.44 45.82 31.72 43.93 29.2 41.64 26.93 38.99 24.99 36.05 23.41 32.89 22.25 29.61 21.53 26.27 21.25 22.98 21.42 19.82 22.02 16.89 23.01 14.25 24.36 11.98 26 10.15 27.87 8.8 29.89 7.98 32 7.7 34.11 7.98 36.13 8.8 38 10.15 39.64 11.98 40.99 14.25 41.98 16.89 42.58 19.82 42.75 22.98 42.47 26.27 41.75 29.61 40.59 32.89 39.01 36.05 37.07 38.99 34.8 41.64 32.28 43.93 29.56 45.82 26.74 47.25 23.9 48.2 21.12 48.66 18.48 48.63 16.08 48.13 13.98 47.18 12.25 45.84 10.96 44.15 10.14 42.19 9.84 40.02 10.07 37.73 10.84 35.39 12.13 33.09 13.92 30.91 16.17 28.93 18.82 27.2 21.8 25.79 25.05 24.75 28.48 24.12 32 23.9"
    fill="none"
    stroke="#00d9ff"
    stroke-opacity=".22"
    stroke-width="7"
    stroke-linecap="round"
    stroke-linejoin="round"
  />
  <path
    d="M32 23.9 35.52 24.12 38.95 24.75 42.2 25.79 45.18 27.2 47.83 28.93 50.08 30.91 51.87 33.09 53.16 35.39 53.93 37.73 54.16 40.02 53.86 42.19 53.04 44.15 51.75 45.84 50.02 47.18 47.92 48.13 45.52 48.63 42.88 48.66 40.1 48.2 37.26 47.25 34.44 45.82 31.72 43.93 29.2 41.64 26.93 38.99 24.99 36.05 23.41 32.89 22.25 29.61 21.53 26.27 21.25 22.98 21.42 19.82 22.02 16.89 23.01 14.25 24.36 11.98 26 10.15 27.87 8.8 29.89 7.98 32 7.7 34.11 7.98 36.13 8.8 38 10.15 39.64 11.98 40.99 14.25 41.98 16.89 42.58 19.82 42.75 22.98 42.47 26.27 41.75 29.61 40.59 32.89 39.01 36.05 37.07 38.99 34.8 41.64 32.28 43.93 29.56 45.82 26.74 47.25 23.9 48.2 21.12 48.66 18.48 48.63 16.08 48.13 13.98 47.18 12.25 45.84 10.96 44.15 10.14 42.19 9.84 40.02 10.07 37.73 10.84 35.39 12.13 33.09 13.92 30.91 16.17 28.93 18.82 27.2 21.8 25.79 25.05 24.75 28.48 24.12 32 23.9"
    fill="none"
    stroke="url(#knot-gradient)"
    stroke-width="3.7"
    stroke-linecap="round"
    stroke-linejoin="round"
  />
</svg>
